<?xml version="1.0" encoding="utf-8"?>
<!-- Generator: Adobe Illustrator 18.1.0, SVG Export Plug-In . SVG Version: 6.00 Build 0)  -->
<svg version="1.1" id="Layer_1" xmlns="http://www.w3.org/2000/svg" xmlns:xlink="http://www.w3.org/1999/xlink" x="0px" y="0px"
	 viewBox="0 0 66.4 79" enable-background="new 0 0 66.4 79" xml:space="preserve">
<g>
	<g>
		<path fill="#754C28" d="M41.3,17.8l-0.1,0.4L42,19c0,0-0.8,3.3-0.3,7.2c0.5,4.9-0.4,8.6-0.4,8.6l-3.7,17c0,0-0.5,3.1-1.3,4
			C36,56,36,56.3,35.5,56.4c-1.4,0.2-4.1-0.3-7.1-0.9c-3.1-0.7-5.8-1.2-7-2.1c-0.3-0.2-0.7-0.8-0.8-1c-0.4-1.2,0-4.2,0-4.2l3.7-17
			c0,0,0.7-4.2,3.5-7.9c2.1-2.8,2.6-6.7,2.6-6.7l0.7-0.5l0.1-0.4l-0.4-0.7l0.9-4.2c0,0,0.2-1.1,2.1-0.7c1.9,0.4,8.2,1.8,8.2,1.8
			s1.2,0.3,1,1.3s-0.9,4.3-0.9,4.3L41.3,17.8z"/>
		<path opacity="0.36" fill="#F4F3EB" d="M24.5,53.9l5-23.2c0,0,1.7-5.1,2.4-6.5c0.7-1.4,1.5-6.8,1.5-6.8l0.7-0.6l-1.5-0.3l-1,0.4
			c0,0-1.7,6.3-2.2,7.1c-0.5,0.8-1.6,2.7-2.8,8.2c-1.2,5.5-4.2,20.8-4.2,20.8l-0.1,0.9l2.2,0.7L24.5,53.9z"/>
		<path opacity="0.6" fill="#603813" d="M32.9,55.4L38,32.6c0,0-0.4-5.9-0.4-7.4c0-1.5,1.3-6.9,1.3-6.9l-0.3-0.8l1.2,0.3l0.6,0.8
			c0,0-1.2,6.1-1.2,7c0,1,1.5,3.7,0.3,9.2s-4.7,20.7-4.7,20.7l-0.2,0.8l-1.9-0.2L32.9,55.4z"/>
		<path fill="#F1A240" d="M41.4,18l-9.8-2.1l-0.3-0.4l-0.6-0.9l0.9-4.2c0,0,0.5-0.7,2.4-0.3c1.9,0.4,6.6,1.4,6.6,1.4
			s2.6,0.3,2.4,1.2S42,17.1,42,17.1l-0.6,0.5L41.4,18z"/>
		<path fill="none" stroke="#402312" stroke-width="1.0345" stroke-linejoin="round" stroke-miterlimit="10" d="M41.3,17.8l-0.1,0.4
			l0.8,0.8c0,0-0.8,3.3-0.4,7.2c0.5,4.9-0.5,8.6-0.5,8.6l-3.7,17c0,0-0.4,3.1-1.2,4c-0.2,0.2-0.1,0.5-0.6,0.6
			c-1.4,0.2-4.1-0.2-7.1-0.9c-3.1-0.7-5.8-1.2-7-2.1c-0.3-0.2-0.7-0.8-0.8-1c-0.4-1.2,0.3-4.2,0.3-4.2l3.5-17c0,0,0.6-4.3,3.3-7.9
			c2.1-2.8,2.5-6.8,2.5-6.8L31,16l0.1-0.4L30.9,15l0.9-4.2c0,0,0.3-0.9,2.2-0.5c1.9,0.4,7.5,1.6,7.5,1.6s1.9,0.4,1.7,1.4
			s-0.9,4.2-0.9,4.2L41.3,17.8z"/>
		
			<line fill="#FAAF3B" stroke="#402312" stroke-width="1.0345" stroke-linecap="round" stroke-linejoin="round" stroke-miterlimit="10" x1="41.1" y1="18" x2="31.4" y2="15.9"/>
	</g>
	<path fill="#35383A" d="M54.8,54.2c5.2-5.4,8.4-12.7,8.4-20.8c0-16.6-13.4-30-30-30s-30,13.4-30,30c0,8.1,3.2,15.4,8.4,20.8
		l21.9,21.9L54.8,54.2z M33.2,60C18.5,60,6.6,48,6.6,33.3c0-14.7,11.9-26.6,26.6-26.6c14.7,0,26.6,11.9,26.6,26.6
		C59.8,48,47.9,60,33.2,60z"/>
</g>
</svg>
