<?xml version="1.0" encoding="utf-8"?>
<!-- Generator: Adobe Illustrator 18.1.1, SVG Export Plug-In . SVG Version: 6.00 Build 0)  -->
<!DOCTYPE svg PUBLIC "-//W3C//DTD SVG 1.1//EN" "http://www.w3.org/Graphics/SVG/1.1/DTD/svg11.dtd">
<svg version="1.1" id="Layer_1" xmlns="http://www.w3.org/2000/svg" xmlns:xlink="http://www.w3.org/1999/xlink" x="0px" y="0px"
	 viewBox="0 0 384.4 291.4" enable-background="new 0 0 384.4 291.4" xml:space="preserve">
<g>
	<path fill="#3B2314" stroke="#3B2314" stroke-width="1.0371" stroke-miterlimit="10" d="M377.8,188.1l-6.6-5.4l-0.3,0v-43.1
		c0-23.8-22.6-43.3-46.4-43.3l0,8.6c19.2,0,37.8,15.5,37.8,34.7V182l-9.7,6c-1.7,1.1-2.4,3.2-1.8,5c0.1,0.3,0.2,0.6,0.4,0.9
		c1.2,2,3.9,2.6,5.9,1.4l9.1-5.6l6.2,5c1.8,1.5,4.5,1.2,6-0.6C379.9,192.3,379.7,189.6,377.8,188.1z"/>
	<path fill="#FFFFFF" d="M71.4,14.9c1.9,0,3.6,0.7,4.9,2c-0.2,0-0.3,0.1-0.5,0.1c-0.8,0.1-1.6,0.3-2.4,0.4c-1.2,0.2-2.5,0.4-3.7,0.6
		c-0.8,0.1-1.6,0.3-2.4,0.5c-0.8,0.2-1.6,0.3-2.4,0.5C66.1,16.6,68.5,14.9,71.4,14.9L71.4,14.9z"/>
	<path fill="#FFFFFF" d="M150.8,14.9c2.9,0,5.4,1.7,6.5,4.1c-0.7-0.2-1.5-0.3-2.3-0.5c-0.8-0.2-1.6-0.4-2.5-0.5
		c-1-0.2-2.2-0.4-3.3-0.6c-0.9-0.1-1.9-0.3-2.8-0.4c-0.2,0-0.3-0.1-0.5-0.1C147.1,15.7,148.9,14.9,150.8,14.9L150.8,14.9z"/>
	<path fill="#754C28" d="M186.9,48.3c-5.5,0-10.1-3.6-11.8-8.6l-0.6-4.4c0.3-6.7,5.7-12,12.4-12c4.4,0,13.3,6.6,19.8,12.5
		C200.3,41.7,191.3,48.3,186.9,48.3L186.9,48.3z"/>
	<path fill="#603813" d="M270.2,270.9l0-29.2h26.7l3.2,5.8c0,0,0,0,0,0.1l-16,26.1c-0.9,1.5-2.6,2.4-4.3,2.4h-4.5
		C272.5,276,270.2,273.7,270.2,270.9z"/>
	<path fill="#754C28" d="M122.8,272.9v-52.2c38-5.5,67.3-38.2,67.3-77.6c0-0.1,0-0.2-0.1-0.3c0-0.1,0-0.2,0-0.3L183.8,99h119.9
		c19.2,0,34.7,15.5,34.7,34.7v137.2c0,2.8-2.3,5.1-5.1,5.1h-4.6c-1.8,0-3.6-1-4.4-2.6l-21.1-38.1c-0.1-0.2-0.2-0.3-0.4-0.4
		c-0.2-0.2-0.4-0.5-0.6-0.7c-0.2-0.2-0.4-0.3-0.7-0.4c-0.2-0.2-0.5-0.3-0.7-0.4c-0.3-0.1-0.6-0.1-0.9-0.2c-0.2,0-0.4-0.1-0.5-0.1
		h-65.1c-2.8,0-5.1-2.3-5.1-5.1v-21c0-2.4-1.9-4.3-4.3-4.3c-2.4,0-4.3,1.9-4.3,4.3v63.9c0,2.8-2.3,5.1-5.1,5.1h-9.2
		c-1.5,0-3-0.7-3.9-1.9l-27.2-33.2c-0.1-0.1-0.2-0.1-0.3-0.2c-0.1-0.1-0.1-0.2-0.2-0.3c-0.2-0.1-0.3-0.2-0.5-0.3
		c-0.2-0.2-0.5-0.3-0.7-0.5c-0.3-0.1-0.5-0.2-0.8-0.2c-0.3,0-0.5-0.1-0.8-0.1c-0.3,0-0.5,0-0.8,0.1c-0.3,0-0.5,0.1-0.8,0.2
		c-0.3,0.1-0.5,0.3-0.8,0.4c-0.1,0.1-0.3,0.1-0.5,0.3c-0.1,0.1-0.1,0.2-0.2,0.3c-0.1,0.1-0.2,0.1-0.3,0.2l-32.3,35.5
		c-1,1.1-2.3,1.7-3.8,1.7h-4.8C125.1,277.9,122.8,275.7,122.8,272.9z"/>
	<path fill="#FFFFFF" d="M111.6,213c-37.1,0-67.5-29.1-69.7-65.7h139.5C179.1,183.9,148.7,213,111.6,213L111.6,213z"/>
	<path fill="#754C28" d="M42.3,138.7c0,0,15.3-107.3,14.9-108.1c0.7-0.5,2.1-1.1,4.4-1.9c5.1-1.7,12.5-3.1,21.5-4.1
		c17-1.8,38.9-1.8,55.9,0.1c9.1,1,16.5,2.4,21.5,4.1c3.1,1.1,4.3,1.9,4.7,2.3l15.6,107.5H42.3z"/>
	<path fill="#754C28" d="M36.6,48.3c-4.4,0-13.3-6.6-19.9-12.5c6.6-5.9,15.5-12.5,19.9-12.5c5.1,0,12.8,4.8,12.2,10.4
		c0,0.1,0,0.1,0,0.2l-1,7.2C45.8,45.3,41.6,48.3,36.6,48.3L36.6,48.3z"/>
	<path d="M36.6,48.3"/>
	<path fill="#3B2314" stroke="#3B2314" stroke-width="1.0371" stroke-linejoin="round" stroke-miterlimit="10" d="M141.3,106.8
		c0.1,3.2,2.7,5.8,5.9,5.8c3.3,0,5.9-2.7,5.9-5.9c0-3.3-2.7-5.9-5.9-5.9c-0.3,0-0.5,0.1-0.8,0.2c1.4-0.7,2.9-1.1,4.5-1.1
		c5.6,0,10.1,4.5,10.1,10.1c0,5.6-4.6,10.1-10.1,10.1c-5.6,0-10.1-4.5-10.1-10.1C140.7,108.8,141,107.8,141.3,106.8z"/>
	<path fill="#3B2314" stroke="#3B2314" stroke-width="1.0371" stroke-linejoin="round" stroke-miterlimit="10" d="M70.3,112.6
		c3.3,0,5.9-2.7,5.9-5.9c0-3.3-2.6-5.9-5.9-5.9c1.3-0.6,2.7-0.9,4.2-0.9c5.6,0,10.1,4.5,10.1,10.1c0,5.6-4.5,10.1-10.1,10.1
		c-5.6,0-10.1-4.5-10.1-10.1c0-0.7,0.1-1.4,0.2-2.1C65.2,110.5,67.4,112.6,70.3,112.6z"/>
	<path fill="#3B2314" stroke="#3B2314" stroke-width="1.0371" stroke-miterlimit="10" d="M347,133.7c0-23.8-19.5-43.3-43.3-43.3
		H182.6l-5.3-36.1c2.9,1.5,6.2,2.5,9.6,2.5c10.5,0,26.1-15,29.1-18c0.8-0.8,1.3-1.9,1.3-3c0-1.2-0.5-2.2-1.3-3.1
		c-3-3-18.6-18-29.1-18c-7.1,0-13.5,3.6-17.2,9.1c-1-0.7-2.1-1.3-3.1-1.8c0-8.7-7.1-15.7-15.8-15.7c-6.3,0-11.9,3.9-14.4,9.6
		c-15.8-1.4-34.8-1.5-50.7,0c-2.5-5.6-8-9.5-14.4-9.5c-8.6,0-15.6,6.9-15.7,15.5c-0.8,0.3-1.6,0.7-2.4,1.2c-3.9-5-9.9-8.3-16.7-8.3
		l0,0c-10.5,0-26.1,15-29.1,18c-0.8,0.8-1.3,1.9-1.3,3c0,1.2,0.5,2.2,1.3,3c3,3,18.6,18,29.1,18c3.3,0,6.4-0.9,9.2-2.2l-12.8,87.8
		c0,0.1,0,0.2,0,0.3c0,0.1-0.1,0.2-0.1,0.3c0,43.3,35.3,78.5,78.6,78.5c0.9,0,1.8-0.1,2.7-0.1v55.4c0,5.3,4.3,9.6,9.6,9.6h13
		c0.6,0,3.2-1.4,3.2-1.4l31.7-34.9l26.9,32.8c0.6,0.7,0.9,1.6,3.3,1.6h17.7c5.3,0,9.6-4.3,9.6-9.6v-33.3h32.3v33.3
		c0,5.3,4.3,9.6,9.6,9.6H285c0.5,0,1-0.1,1.5-0.3c0.1,0,0.2-0.1,0.3-0.1c0.4-0.2,0.8-0.5,1.2-0.8c0,0,0.1-0.1,0.1-0.1
		c0.2-0.2,0.4-0.4,0.5-0.6l16.2-26.4l14.6,26.3c0.2,0.4,0.4,0.7,0.7,1c0,0,0,0,0,0c0.4,0.3,0.8,0.6,1.2,0.8c0.1,0,0.2,0.1,0.4,0.2
		c0.5,0.2,1,0.3,1.5,0.3h14.2c5.3,0,9.6-4.3,9.6-9.6V133.7z M71.4,14.9c1.9,0,3.6,0.7,4.9,2c-0.2,0-0.3,0.1-0.5,0.1
		c-0.8,0.1-1.6,0.3-2.4,0.4c-1.2,0.2-2.5,0.4-3.7,0.6c-0.8,0.1-1.6,0.3-2.4,0.5c-0.8,0.2-1.6,0.3-2.4,0.5
		C66.1,16.6,68.5,14.9,71.4,14.9L71.4,14.9z M150.8,14.9c2.9,0,5.4,1.7,6.5,4.1c-0.7-0.2-1.5-0.3-2.3-0.5c-0.8-0.2-1.6-0.4-2.5-0.5
		c-1-0.2-2.2-0.4-3.3-0.6c-0.9-0.1-1.9-0.3-2.8-0.4c-0.2,0-0.3-0.1-0.5-0.1C147.1,15.7,148.9,14.9,150.8,14.9L150.8,14.9z
		 M186.9,48.3c-5.5,0-10.1-3.6-11.8-8.6l-0.6-4.4c0.3-6.7,5.7-12,12.4-12c4.4,0,13.3,6.6,19.8,12.5
		C200.3,41.7,191.3,48.3,186.9,48.3L186.9,48.3z M270.2,270.9l0-29.2h26.7l3.2,5.8c0,0,0,0,0,0.1l-16,26.1c-0.9,1.5-2.6,2.4-4.3,2.4
		h-4.5C272.5,276,270.2,273.7,270.2,270.9z M122.8,272.9v-52.2c38-5.5,67.3-38.2,67.3-77.6c0-0.1,0-0.2-0.1-0.3c0-0.1,0-0.2,0-0.3
		L183.8,99h119.9c19.2,0,34.7,15.5,34.7,34.7v137.2c0,2.8-2.3,5.1-5.1,5.1h-4.6c-1.8,0-3.6-1-4.4-2.6l-21.1-38.1
		c-0.1-0.2-0.2-0.3-0.4-0.4c-0.2-0.2-0.4-0.5-0.6-0.7c-0.2-0.2-0.4-0.3-0.7-0.4c-0.2-0.2-0.5-0.3-0.7-0.4c-0.3-0.1-0.6-0.1-0.9-0.2
		c-0.2,0-0.4-0.1-0.5-0.1h-65.1c-2.8,0-5.1-2.3-5.1-5.1v-21c0-2.4-1.9-4.3-4.3-4.3c-2.4,0-4.3,1.9-4.3,4.3v63.9
		c0,2.8-2.3,5.1-5.1,5.1h-9.2c-1.5,0-3-0.7-3.9-1.9l-27.2-33.2c-0.1-0.1-0.2-0.1-0.3-0.2c-0.1-0.1-0.1-0.2-0.2-0.3
		c-0.2-0.1-0.3-0.2-0.5-0.3c-0.2-0.2-0.5-0.3-0.7-0.5c-0.3-0.1-0.5-0.2-0.8-0.2c-0.3,0-0.5-0.1-0.8-0.1c-0.3,0-0.5,0-0.8,0.1
		c-0.3,0-0.5,0.1-0.8,0.2c-0.3,0.1-0.5,0.3-0.8,0.4c-0.1,0.1-0.3,0.1-0.5,0.3c-0.1,0.1-0.1,0.2-0.2,0.3c-0.1,0.1-0.2,0.1-0.3,0.2
		l-32.3,35.5c-1,1.1-2.3,1.7-3.8,1.7h-4.8C125.1,277.9,122.8,275.7,122.8,272.9z M111.6,213c-37.1,0-67.5-29.1-69.7-65.7h139.5
		C179.1,183.9,148.7,213,111.6,213L111.6,213z M42.3,138.7c0,0,15.3-107.3,14.9-108.1c0.7-0.5,2.1-1.1,4.4-1.9
		c5.1-1.7,12.5-3.1,21.5-4.1c17-1.8,38.9-1.8,55.9,0.1c9.1,1,16.5,2.4,21.5,4.1c3.1,1.1,4.3,1.9,4.7,2.3l15.6,107.5H42.3z
		 M36.6,48.3c-4.4,0-13.3-6.6-19.9-12.5c6.6-5.9,15.5-12.5,19.9-12.5c5.1,0,12.8,4.8,12.2,10.4c0,0.1,0,0.1,0,0.2l-1,7.2
		C45.8,45.3,41.6,48.3,36.6,48.3L36.6,48.3z M36.6,48.3"/>
	<path fill="#3B2314" stroke="#3B2314" stroke-width="1.0371" stroke-miterlimit="10" d="M48.8,170.4c1.3-3.1,4.2-6.6,8.2-7.2
		c0.7-0.1,3.7-0.4,5.8,1.4c1,0.9,1.8,2.2,1.5,2.4c-0.3,0.4-1.9-1.5-4-1.4c-2.3,0.1-4.9,2.5-5.4,5.6c-0.6,3.9,2.8,10.9,14.6,4.2
		c5-2.8,7.5-4.5,10.8-6.6c4.2-2.7,8-6.7,15.1-6.8c7.6-0.1,15.2,4.5,15.2,4.5s7.6-4.6,15.2-4.5c7,0.1,10.9,4.2,15.1,6.8
		c3.3,2.1,5.8,3.8,10.8,6.6c11.8,6.6,15.2-0.3,14.6-4.2c-0.5-3.1-3.1-5.6-5.4-5.6c-2.1-0.1-3.7,1.8-4,1.4c-0.3-0.3,0.5-1.6,1.5-2.4
		c2.2-1.8,5.2-1.5,5.8-1.4c4,0.6,6.9,4.1,8.2,7.2c3,7.3-1.8,14.5-2.1,14.9c-3.7,4.7-9,6.6-14.7,7.8c-18.9,3.8-34.8-5.9-37-7.2
		c-3.3-2-7.9-5.7-7.9-5.7s-4.6,3.7-7.9,5.7c-2.2,1.3-18.1,11.1-37,7.2c-5.7-1.2-11-3-14.7-7.8C50.6,184.9,45.8,177.7,48.8,170.4z"/>
</g>
</svg>
