<?xml version="1.0" encoding="utf-8"?>
<!-- Generator: Adobe Illustrator 18.1.0, SVG Export Plug-In . SVG Version: 6.00 Build 0)  -->
<svg version="1.1" xmlns="http://www.w3.org/2000/svg" xmlns:xlink="http://www.w3.org/1999/xlink" x="0px" y="0px"
	 viewBox="0 0 42 42" enable-background="new 0 0 42 42" xml:space="preserve">
<g id="Layer_1">
	<g>
		<defs>
			<path id="SVGID_1_" d="M20.8,40.8c11,0,20-9,20-20s-9-20-20-20s-20,9-20,20S9.7,40.8,20.8,40.8"/>
		</defs>
		<clipPath id="SVGID_2_">
			<use xlink:href="#SVGID_1_"  overflow="visible"/>
		</clipPath>
		<g clip-path="url(#SVGID_2_)">
			<defs>
				<rect id="SVGID_3_" x="0" y="-0.1" width="42.8" height="42.8"/>
			</defs>
			<clipPath id="SVGID_4_">
				<use xlink:href="#SVGID_3_"  overflow="visible"/>
			</clipPath>
			<rect x="0" y="-0.1" clip-path="url(#SVGID_4_)" fill="#3C5A97" width="42.8" height="42.8"/>
			<circle clip-path="url(#SVGID_4_)" fill="#687FAD" cx="24.8" cy="-9.5" r="31.1"/>
		</g>
		<path clip-path="url(#SVGID_2_)" fill="#FFFFFF" d="M22.3,33.1h-5.5V21.7h-3v-5.2h3v-2.9c0-2.7,1.7-5.8,6.4-5.8
			c1.7,0,2.9,0.2,3,0.2l0.5,0.1l-0.1,4.9l-0.6,0c0,0-1.2,0-2.6,0c-1,0-1.1,0.3-1.1,1.2v2.4h4.5l-0.2,5.2h-4.2V33.1z"/>
	</g>
</g>
<g id="Layer_2" display="none">
	<g display="inline">
		<defs>
			<path id="SVGID_5_" d="M20.8,40.8c11,0,20-9,20-20s-9-20-20-20s-20,9-20,20S9.7,40.8,20.8,40.8"/>
		</defs>
		<clipPath id="SVGID_6_">
			<use xlink:href="#SVGID_5_"  overflow="visible"/>
		</clipPath>
		<g clip-path="url(#SVGID_6_)">
			<defs>
				<rect id="SVGID_7_" x="0" y="0.2" width="42.8" height="42.8"/>
			</defs>
			<clipPath id="SVGID_8_">
				<use xlink:href="#SVGID_7_"  overflow="visible"/>
			</clipPath>
			<rect x="0" y="0.2" clip-path="url(#SVGID_8_)" fill="#0096C4" width="42.8" height="42.8"/>
			<circle clip-path="url(#SVGID_8_)" fill="#3CACCF" cx="25.1" cy="-9.2" r="31.1"/>
		</g>
		<path clip-path="url(#SVGID_6_)" fill="#FFFFFF" d="M33.4,12.5c-0.2,0.1-0.4,0.2-0.6,0.2c0.3-0.4,0.6-0.9,0.8-1.4l0.4-1.1l-1,0.6
			c0,0-1,0.6-2,0.9c-1-1.1-2.4-1.7-3.9-1.7c-3.3,0-5.3,2.7-5.3,5.3c0,0.2,0.1,0.9,0.1,1.1l0.3,0.8l-0.9,0c-4.6-0.1-9-2.1-12-5.6
			C8,14.7,10,17.2,11,18l1.4,1.1l-1.8,0c-0.6,0-1.1-0.1-1.6-0.2c0.5,2.1,2.1,3.8,4.3,4.3l2.4,0.5l-2.3,0.7c-0.4,0.1-0.9,0.2-1.4,0.2
			c-0.2,0-0.5,0-0.7,0c0.9,1.6,2.7,2.8,4.6,2.9l1.7,0.1l-1.4,1c-2.3,1.7-4.7,2.5-6.5,2.8c2,0.9,4.1,1.5,6.3,1.5h0.1
			c6,0,9.9-3,12-5.4c3-3.3,4.6-7.9,4.2-11.9l0-0.3c0.7-0.5,1.3-1.1,1.7-1.9l0.5-1.1L33.4,12.5z"/>
	</g>
</g>
<g id="Layer_3">
	<g>
		<defs>
			<path id="SVGID_9_" d="M20.8,40.8c11,0,20-9,20-20s-9-20-20-20s-20,9-20,20S9.7,40.8,20.8,40.8"/>
		</defs>
		<clipPath id="SVGID_10_">
			<use xlink:href="#SVGID_9_"  overflow="visible"/>
		</clipPath>
		<g clip-path="url(#SVGID_10_)">
			<defs>
				<rect id="SVGID_11_" x="0" y="-0.7" width="42.8" height="42.8"/>
			</defs>
			<clipPath id="SVGID_12_">
				<use xlink:href="#SVGID_11_"  overflow="visible"/>
			</clipPath>
			<rect x="0" y="-0.7" clip-path="url(#SVGID_12_)" fill="#E13D29" width="42.8" height="42.8"/>
			<circle clip-path="url(#SVGID_12_)" fill="#E56A5B" cx="24.8" cy="-10" r="31.1"/>
		</g>
		<g clip-path="url(#SVGID_10_)">
			<polygon fill="#FFFFFF" points="40,12 34.9,12 34.9,17 32.4,17 32.4,12 27.3,12 27.3,9.4 32.4,9.4 32.4,4.4 34.9,4.4 34.9,9.4 
				40,9.4 			"/>
			<path fill="#FFFFFF" d="M21.7,25.2c-1-0.8-3.2-2.3-3.2-3.4c0-1.2,0.4-1.8,2.2-3.3c1.9-1.5,3.2-3.4,3.2-5.8c0-2.6-1.1-4.2-3.1-6.2
				h2.9l2.5-3c0,0-8.1,0-11,0c-5.6,0-10.2,4.3-10.2,8.8c0,4.6,3.1,8.4,8.3,8.4c0.4,0,0.7,0,1.1,0c-0.3,0.7-0.6,1.4-0.6,2.2
				c0,1.3,0.7,2,1.6,2.9c-0.7,0-1.3,0-2,0c-6.4,0-10.8,4.4-10.8,8.6c0,4.1,5.4,6.7,11.8,6.7c7.3,0,11.7-4.1,11.7-8.3
				C26,29.5,25.2,27.8,21.7,25.2z M9.1,12.4c-0.5-3.8,1.4-6.8,4.3-6.8c0,0,0.1,0,0.1,0c3,0.1,5.5,3.3,6,7.2c0.5,3.8-1.1,6.3-4,6.3
				c-0.1,0-0.1,0-0.2,0C12.4,19,9.6,16.3,9.1,12.4z M14.2,39.3c-4.4,0-7.6-3.6-7.6-6.9c0-3.3,3.7-6.8,8-6.8c0,0,0.1,0,0.1,0
				c1,0,2,0.9,2.9,1.2c2.4,1.7,4.3,3.1,4.8,5c0.1,0.4,0.1,1,0.1,1.4C22.5,36.5,20.4,39.3,14.2,39.3z"/>
		</g>
	</g>
</g>
</svg>
