<?xml version="1.0" encoding="utf-8"?>
<!-- Generator: Adobe Illustrator 18.1.1, SVG Export Plug-In . SVG Version: 6.00 Build 0)  -->
<!DOCTYPE svg PUBLIC "-//W3C//DTD SVG 1.1//EN" "http://www.w3.org/Graphics/SVG/1.1/DTD/svg11.dtd">
<svg version="1.1" id="Layer_1" xmlns="http://www.w3.org/2000/svg" xmlns:xlink="http://www.w3.org/1999/xlink" x="0px" y="0px"
	 viewBox="0 0 1459.2 398.7" enable-background="new 0 0 1459.2 398.7" xml:space="preserve">
<g>
	<g>
		<path fill="#B11917" d="M464.6,107.4l-25-103.7H472l11.2,66.9l13.1-66.9h27.5l12.5,66.9l10.9-66.9h31.7l-24.6,103.7h-33
			l-11.8-62.1l-11.5,62.1L464.6,107.4L464.6,107.4z"/>
		<path fill="#B11917" d="M586.9,107.4V3.7h82.9v25h-49.6v13.8h41.9v23.7h-41.9v16h51.5v25.3H586.9z"/>
		<path fill="#B11917" d="M684.2,107.4V3.7h33.3v76.2h45.1v27.5L684.2,107.4L684.2,107.4z"/>
		<path fill="#B11917" d="M773.4,107.4V3.7h33v76.2h45.1v27.5L773.4,107.4L773.4,107.4z"/>
		<path fill="#B11917" d="M862.7,107.4V3.7h33.9v103.7H862.7z"/>
		<path fill="#B11917" d="M913.9,107.4V3.7h31.7L974.7,52c1,1.3,1.9,3.2,2.9,5.8c1,2.6,1.9,5.4,3.2,9c-0.3-1.9-0.6-3.8-0.6-6.1
			c0-2.2-0.3-4.8-0.3-8v-49h31.7v103.7h-31.7l-29.1-47.7c-1-1.3-1.9-3.5-2.9-6.1c-1-2.6-2.2-5.4-3.2-9c0.3,1.9,0.6,3.8,0.6,5.8
			s0.3,4.8,0.3,8.3v48.6H913.9z"/>
		<path fill="#B11917" d="M1105.3,107.4l-1.6-9c-3.8,3.8-8.3,7-13.4,9c-5.4,1.9-11.5,2.9-18.6,2.9c-14.7,0-26.6-4.8-34.9-14.7
			s-12.8-23-12.8-40c0-17.3,4.8-30.7,14.4-40.3s22.7-14.4,40-14.4c13.4,0,24.3,3.2,32.6,9.9s13.1,16,14.7,28.5h-31.7
			c-1.3-4.2-3.2-7.4-6.1-9.3c-2.9-2.2-6.4-3.2-10.6-3.2c-6.7,0-11.5,2.6-15,7.7c-3.5,5.1-4.8,12.8-4.8,22.7c0,9.3,1.6,16.3,5.1,21.1
			c3.2,4.8,8.3,7,15,7c4.8,0,9-1.3,12.5-3.5c3.5-2.2,5.4-5.4,6.4-9.3h-15V50.7h45.4v56.6H1105.3z"/>
		<path fill="#B11917" d="M1164.2,107.4V31.2h-29.8V3.7h92.8v27.2h-29.8V107h-33.3V107.4z"/>
		<path fill="#B11917" d="M1230.7,55.8c0-17,4.8-30.1,14.4-40c9.6-9.9,22.7-14.7,39.4-14.7c16.6,0,29.8,4.8,39.4,14.7
			s14.4,23,14.4,40s-4.8,30.1-14.4,40s-22.7,14.7-39.4,14.7s-29.8-4.8-39.4-14.7S1230.7,72.5,1230.7,55.8z M1264.3,55.8
			c0,9.9,1.6,17,4.8,21.4c3.2,4.5,8.3,7,15.4,7c7,0,12.2-2.2,15.4-6.7c3.2-4.5,4.8-11.8,4.8-21.8s-1.6-17.3-4.8-21.8
			c-3.2-4.5-8.3-6.7-15.4-6.7c-7,0-12.2,2.2-15.4,7C1265.9,39.2,1264.3,45.9,1264.3,55.8z"/>
		<path fill="#B11917" d="M1350.4,107.4V3.7h31.7l29.1,48.3c1,1.3,1.9,3.2,2.9,5.8s1.9,5.4,3.2,9c-0.3-1.9-0.6-3.8-0.6-6.1
			c0-2.2-0.3-4.8-0.3-8v-49h31.7v103.7h-31.7l-29.1-47.7c-1-1.3-1.9-3.5-2.9-6.1s-2.2-5.4-3.2-9c0.3,1.9,0.6,3.8,0.6,5.8
			s0.3,4.8,0.3,8.3v48.6H1350.4z"/>
		<path fill="#FFFFFF" d="M515.2,211.4h31.4c-1,13.8-5.8,24.3-14.4,31.7c-8.6,7.7-20.5,11.2-35.2,11.2c-16.6,0-29.8-4.8-39-14.7
			s-14.4-23-14.4-40s4.8-30.1,14.1-40c9.3-9.9,22.4-14.7,38.4-14.7c15,0,26.9,3.5,35.5,10.9s13.4,17.6,14.4,31h-32
			c-0.3-5.4-2.2-9.3-5.1-11.8s-7-4.2-12.5-4.2c-6.4,0-11.5,2.2-14.7,7c-3.2,4.8-4.8,11.8-4.8,21.4c0,9.3,1.6,16.6,5.1,21.4
			c3.5,4.8,8.6,7.4,15.4,7.4c5.1,0,9.3-1.6,12.2-4.5C513,221,514.9,216.8,515.2,211.4z"/>
		<path fill="#FFFFFF" d="M566.4,251.4V147.7h33.3v35.2h31v-35.2H664v103.7h-33.3v-40h-31v40H566.4z"/>
		<path fill="#FFFFFF" d="M684.8,199.8c0-17,4.8-30.1,14.4-40c9.6-9.6,22.7-14.7,39.4-14.7c16.6,0,29.8,4.8,39.4,14.7
			s14.4,23,14.4,40c0,17-4.8,30.1-14.4,40c-9.6,9.9-22.7,14.7-39.4,14.7s-29.8-4.8-39.4-14.7C689.6,229.9,684.8,216.5,684.8,199.8z
			 M718.1,199.8c0,9.9,1.6,17,4.8,21.4c3.2,4.5,8.3,7,15.4,7c7,0,12.2-2.2,15.4-6.7c3.2-4.5,4.8-11.8,4.8-21.8s-1.6-17.3-4.8-21.8
			s-8.3-6.7-15.4-6.7s-12.2,2.2-15.4,7C719.7,183.2,718.1,189.9,718.1,199.8z"/>
		<path fill="#FFFFFF" d="M880.3,211.4h31.4c-1,13.8-5.8,24.3-14.4,31.7c-8.6,7.7-20.5,11.2-35.2,11.2c-16.6,0-29.8-4.8-39-14.7
			c-9.3-9.9-14.4-23-14.4-40s4.8-30.1,14.1-40c9.3-9.9,22.4-14.7,38.4-14.7c15,0,26.9,3.5,35.5,10.9c8.6,7.4,13.4,17.6,14.4,31h-32
			c-0.3-5.4-2.2-9.3-5.1-11.8s-7-4.2-12.5-4.2c-6.4,0-11.5,2.2-14.7,7c-3.2,4.8-4.8,11.8-4.8,21.4c0,9.3,1.6,16.6,5.1,21.4
			c3.5,4.8,8.6,7.4,15.4,7.4c5.1,0,9.3-1.6,12.2-4.5C878.1,221,879.7,216.8,880.3,211.4z"/>
		<path fill="#FFFFFF" d="M927,199.8c0-17,4.8-30.1,14.4-40c9.6-9.6,22.7-14.7,39.4-14.7c16.6,0,29.8,4.8,39.4,14.7s14.4,23,14.4,40
			c0,17-4.8,30.1-14.4,40c-9.6,9.9-22.7,14.7-39.4,14.7c-16.6,0-29.8-4.8-39.4-14.7C931.8,229.9,927,216.5,927,199.8z M960.3,199.8
			c0,9.9,1.6,17,4.8,21.4s8.3,7,15.4,7s12.2-2.2,15.4-6.7c3.2-4.5,4.8-11.8,4.8-21.8s-1.6-17.3-4.8-21.8c-3.2-4.5-8.3-6.7-15.4-6.7
			s-12.2,2.2-15.4,7C961.9,183.2,960.3,189.9,960.3,199.8z"/>
		<path fill="#FFFFFF" d="M1055.4,251.4V147.7h33.3v76.2h45.1v27.5H1055.4z"/>
		<path fill="#FFFFFF" d="M1142.7,251.4l36.5-103.7h33.6l36.5,103.7h-33l-3.8-13.8h-33l-4.2,13.8H1142.7z M1185.6,215.8h20.8
			l-10.2-35.8L1185.6,215.8z"/>
		<path fill="#FFFFFF" d="M1286.1,251.4v-76.2h-29.8V148h92.8v27.2h-29.8v76.2H1286.1z"/>
		<path fill="#FFFFFF" d="M1365.8,251.4V147.7h82.9v25H1399v13.8h41.9v23.7H1399v16h51.5v25.3H1365.8z"/>
		<path fill="#B11917" d="M478.4,395.4h-30.1V291.7H489l14.4,51.5c0.3,0.6,0.6,2.2,1.3,4.8c0.6,2.6,1.3,6.1,2.2,10.2
			c0.6-3.5,1.3-6.4,1.9-9c0.6-2.6,1-4.5,1.6-5.8l14.7-51.8h40.3v103.7h-30.1l0.3-50.9c0-3.2,0-6.1,0-9s0-6.1,0-9
			c-1.3,5.4-2.6,11.2-4.2,17.6l-0.3,1l-12.8,50.6H495l-12.8-49.6c-0.6-2.2-1.3-4.8-1.9-7.7c-0.6-2.9-1.3-6.7-2.2-11.8
			c0,4.5,0.3,8.3,0.3,11.5s0,5.8,0,7.7C478.4,345.8,478.4,395.4,478.4,395.4z"/>
		<path fill="#B11917" d="M635.5,395.4V291.7h33.9v103.7L635.5,395.4L635.5,395.4z"/>
		<path fill="#B11917" d="M740.2,395.4V291.7h33.3v76.2h45.1v27.5L740.2,395.4L740.2,395.4z"/>
		<path fill="#B11917" d="M882.6,395.4V291.7h33v34.2l29.8-34.2H984l-37.1,38.1l41.9,65.3h-39.7l-25.3-41.6l-8.3,8.6v33h-33V395.4z"
			/>
		<path fill="#B11917" d="M1045.1,395.4V291.7h82.9v25h-49.6v13.8h41.9v23.7h-41.9v16h51.5v25.3L1045.1,395.4L1045.1,395.4z"/>
		<path fill="#B11917" d="M1195.8,395.4V291.7h49.6c15.4,0,26.6,2.2,33.3,7c6.7,4.8,9.9,12.2,9.9,22.7c0,6.4-1.3,11.5-4.2,15.7
			s-7,7.4-12.5,9.9c5.8,1.3,9.9,3.5,12.5,7.4c2.6,3.5,4.2,9,4.2,15.7l0.6,14.4v0.3c0,4.2,1.3,6.4,2.9,6.4v3.8h-33.6
			c-0.6-2.6-1-4.8-1.3-6.4c-0.3-1.6-0.3-3.2-0.3-4.5v-10.2c0-5.4-1-9-3.2-11.2s-5.8-3.2-10.9-3.2h-14.1v35.8H1195.8z M1228.8,336.2
			h15c5.4,0,9-0.6,10.9-2.2c1.9-1.3,2.9-3.8,2.9-7.4s-1-6.1-2.9-7.7c-1.9-1.3-6.1-2.2-11.8-2.2h-14.1V336.2z"/>
		<path fill="#B11917" d="M1351.4,363h32.3c1,3.8,2.6,6.4,4.8,8c2.2,1.6,5.8,2.6,10.6,2.6c3.8,0,7-0.6,9.3-1.9
			c2.2-1.3,3.2-3.2,3.2-5.4c0-3.8-4.8-6.7-14.1-9.3c-1.9-0.3-3.2-1-4.2-1c-7.7-1.9-13.8-3.8-18.2-5.4c-4.5-1.6-7.7-3.2-9.9-4.5
			c-3.8-2.9-7-6.4-9-10.2c-1.9-3.8-2.9-8.6-2.9-13.8c0-10.2,3.8-18.2,11.5-24.3c7.7-6.1,18.2-8.6,32-8.6c13.4,0,23.7,2.9,31.4,8.3
			c7.7,5.8,11.8,13.8,12.8,24h-31.7c-0.6-3.2-1.9-5.4-4.2-6.7c-2.2-1.6-5.4-2.2-9.3-2.2c-3.5,0-6.1,0.6-8,1.6
			c-1.6,1.3-2.6,2.9-2.6,5.4c0,3.5,4.5,6.4,13.8,8.6c0.6,0.3,1.3,0.3,1.9,0.6c1.3,0.3,3.2,1,6.1,1.6c12.2,3.2,19.8,5.8,23.7,8.3
			c4.5,3.2,8,6.4,9.9,10.6c1.9,4.2,3.2,8.6,3.2,13.8c0,11.5-3.8,20.2-11.8,26.2c-8,6.1-19.5,9.3-34.2,9.3c-13.8,0-24.6-3.2-32.6-9.3
			C1356.8,382.9,1352.3,374.2,1351.4,363z"/>
	</g>
	<rect x="0" fill="#B11917" width="396.8" height="396.9"/>
	<g>
		<path fill="#3B2314" stroke="#3B2314" stroke-width="1.0371" stroke-miterlimit="10" d="M383.4,245.5l-6.6-5.4l-0.3,0V197
			c0-23.8-22.6-43.3-46.4-43.3l0,8.6c19.2,0,37.8,15.5,37.8,34.7v42.4l-9.7,6c-1.7,1.1-2.4,3.2-1.8,5c0.1,0.3,0.2,0.6,0.4,0.9
			c1.2,2,3.9,2.6,5.9,1.4l9.1-5.6l6.2,5c1.8,1.5,4.5,1.2,6-0.6C385.5,249.7,385.3,247,383.4,245.5z"/>
		<path fill="#FFFFFF" d="M77,72.3c1.9,0,3.6,0.7,4.9,2c-0.2,0-0.3,0.1-0.5,0.1c-0.8,0.1-1.6,0.3-2.4,0.4c-1.2,0.2-2.5,0.4-3.7,0.6
			c-0.8,0.1-1.6,0.3-2.4,0.5c-0.8,0.2-1.6,0.3-2.4,0.5C71.7,73.9,74.2,72.3,77,72.3L77,72.3z"/>
		<path fill="#FFFFFF" d="M156.4,72.3c2.9,0,5.4,1.7,6.5,4.1c-0.7-0.2-1.5-0.3-2.3-0.5c-0.8-0.2-1.6-0.4-2.5-0.5
			c-1-0.2-2.2-0.4-3.3-0.6c-0.9-0.1-1.9-0.3-2.8-0.4c-0.2,0-0.3-0.1-0.5-0.1C152.7,73.1,154.5,72.3,156.4,72.3L156.4,72.3z"/>
		<path fill="#754C28" d="M192.6,105.6c-5.5,0-10.1-3.6-11.8-8.6l-0.6-4.4c0.3-6.7,5.7-12,12.4-12c4.4,0,13.3,6.6,19.8,12.5
			C205.9,99.1,196.9,105.6,192.6,105.6L192.6,105.6z"/>
		<path fill="#603813" d="M275.8,328.3l0-29.2h26.7l3.2,5.8c0,0,0,0,0,0.1l-16,26.1c-0.9,1.5-2.6,2.4-4.3,2.4h-4.5
			C278.1,333.4,275.8,331.1,275.8,328.3z"/>
		<path fill="#754C28" d="M128.5,330.2v-52.2c38-5.5,67.3-38.2,67.3-77.6c0-0.1,0-0.2-0.1-0.3c0-0.1,0-0.2,0-0.3l-6.3-43.4h119.9
			c19.2,0,34.7,15.5,34.7,34.7v137.2c0,2.8-2.3,5.1-5.1,5.1h-4.6c-1.8,0-3.6-1-4.4-2.6l-21.1-38.1c-0.1-0.2-0.2-0.3-0.4-0.4
			c-0.2-0.2-0.4-0.5-0.6-0.7c-0.2-0.2-0.4-0.3-0.7-0.4c-0.2-0.2-0.5-0.3-0.7-0.4c-0.3-0.1-0.6-0.1-0.9-0.2c-0.2,0-0.4-0.1-0.5-0.1
			H240c-2.8,0-5.1-2.3-5.1-5.1v-21c0-2.4-1.9-4.3-4.3-4.3c-2.4,0-4.3,1.9-4.3,4.3v63.9c0,2.8-2.3,5.1-5.1,5.1H212
			c-1.5,0-3-0.7-3.9-1.9l-27.2-33.2c-0.1-0.1-0.2-0.1-0.3-0.2c-0.1-0.1-0.1-0.2-0.2-0.3c-0.2-0.1-0.3-0.2-0.5-0.3
			c-0.2-0.2-0.5-0.3-0.7-0.5c-0.3-0.1-0.5-0.2-0.8-0.2c-0.3,0-0.5-0.1-0.8-0.1c-0.3,0-0.5,0-0.8,0.1c-0.3,0-0.5,0.1-0.8,0.2
			c-0.3,0.1-0.5,0.3-0.8,0.4c-0.1,0.1-0.3,0.1-0.5,0.3c-0.1,0.1-0.1,0.2-0.2,0.3c-0.1,0.1-0.2,0.1-0.3,0.2l-32.3,35.5
			c-1,1.1-2.3,1.7-3.8,1.7h-4.8C130.7,335.3,128.5,333.1,128.5,330.2z"/>
		<path fill="#FFFFFF" d="M117.2,270.4c-37.1,0-67.5-29.1-69.7-65.7H187C184.7,241.3,154.3,270.4,117.2,270.4L117.2,270.4z"/>
		<path fill="#754C28" d="M47.9,196.1c0,0,15.3-107.3,14.9-108.1c0.7-0.5,2.1-1.1,4.4-1.9c5.1-1.7,12.5-3.1,21.5-4.1
			c17-1.8,38.9-1.8,55.9,0.1c9.1,1,16.5,2.4,21.5,4.1c3.1,1.1,4.3,1.9,4.7,2.3l15.6,107.5H47.9z"/>
		<path fill="#754C28" d="M42.2,105.6c-4.4,0-13.3-6.6-19.9-12.5c6.6-5.9,15.5-12.5,19.9-12.5c5.1,0,12.8,4.8,12.2,10.4
			c0,0.1,0,0.1,0,0.2l-1,7.2C51.4,102.7,47.2,105.6,42.2,105.6L42.2,105.6z"/>
		<path d="M42.2,105.6"/>
		<path fill="#3B2314" stroke="#3B2314" stroke-width="1.0371" stroke-linejoin="round" stroke-miterlimit="10" d="M146.9,164.2
			c0.1,3.2,2.7,5.8,5.9,5.8c3.3,0,5.9-2.7,5.9-5.9c0-3.3-2.7-5.9-5.9-5.9c-0.3,0-0.5,0.1-0.8,0.2c1.4-0.7,2.9-1.1,4.5-1.1
			c5.6,0,10.1,4.5,10.1,10.1c0,5.6-4.6,10.1-10.1,10.1c-5.6,0-10.1-4.5-10.1-10.1C146.4,166.2,146.6,165.2,146.9,164.2z"/>
		<path fill="#3B2314" stroke="#3B2314" stroke-width="1.0371" stroke-linejoin="round" stroke-miterlimit="10" d="M75.9,170
			c3.3,0,5.9-2.7,5.9-5.9c0-3.3-2.6-5.9-5.9-5.9c1.3-0.6,2.7-0.9,4.2-0.9c5.6,0,10.1,4.5,10.1,10.1c0,5.6-4.5,10.1-10.1,10.1
			c-5.6,0-10.1-4.5-10.1-10.1c0-0.7,0.1-1.4,0.2-2.1C70.8,167.9,73,170,75.9,170z"/>
		<path fill="#3B2314" stroke="#3B2314" stroke-width="1.0371" stroke-miterlimit="10" d="M352.6,191.1c0-23.8-19.5-43.3-43.3-43.3
			H188.2l-5.3-36.1c2.9,1.5,6.2,2.5,9.6,2.5c10.5,0,26.1-15,29.1-18c0.8-0.8,1.3-1.9,1.3-3c0-1.2-0.5-2.2-1.3-3.1
			c-3-3-18.6-18-29.1-18c-7.1,0-13.5,3.6-17.2,9.1c-1-0.7-2.1-1.3-3.1-1.8c0-8.7-7.1-15.7-15.8-15.7c-6.3,0-11.9,3.9-14.4,9.6
			c-15.8-1.4-34.8-1.5-50.7,0c-2.5-5.6-8-9.5-14.4-9.5c-8.6,0-15.6,6.9-15.7,15.5c-0.8,0.3-1.6,0.7-2.4,1.2c-3.9-5-9.9-8.3-16.7-8.3
			l0,0c-10.5,0-26.1,15-29.1,18c-0.8,0.8-1.3,1.9-1.3,3c0,1.2,0.5,2.2,1.3,3c3,3,18.6,18,29.1,18c3.3,0,6.4-0.9,9.2-2.2l-12.8,87.8
			c0,0.1,0,0.2,0,0.3c0,0.1-0.1,0.2-0.1,0.3c0,43.3,35.3,78.5,78.6,78.5c0.9,0,1.8-0.1,2.7-0.1v55.4c0,5.3,4.3,9.6,9.6,9.6h13
			c0.6,0,3.2-1.4,3.2-1.4l31.7-34.9l26.9,32.8c0.6,0.7,0.9,1.6,3.3,1.6h17.7c5.3,0,9.6-4.3,9.6-9.6V299h32.3v33.3
			c0,5.3,4.3,9.6,9.6,9.6h13.8c0.5,0,1-0.1,1.5-0.3c0.1,0,0.2-0.1,0.3-0.1c0.4-0.2,0.8-0.5,1.2-0.8c0,0,0.1-0.1,0.1-0.1
			c0.2-0.2,0.4-0.4,0.5-0.6l16.2-26.4l14.6,26.3c0.2,0.4,0.4,0.7,0.7,1c0,0,0,0,0,0c0.4,0.3,0.8,0.6,1.2,0.8c0.1,0,0.2,0.1,0.4,0.2
			c0.5,0.2,1,0.3,1.5,0.3H343c5.3,0,9.6-4.3,9.6-9.6V191.1z M77,72.3c1.9,0,3.6,0.7,4.9,2c-0.2,0-0.3,0.1-0.5,0.1
			c-0.8,0.1-1.6,0.3-2.4,0.4c-1.2,0.2-2.5,0.4-3.7,0.6c-0.8,0.1-1.6,0.3-2.4,0.5c-0.8,0.2-1.6,0.3-2.4,0.5
			C71.7,73.9,74.2,72.3,77,72.3L77,72.3z M156.4,72.3c2.9,0,5.4,1.7,6.5,4.1c-0.7-0.2-1.5-0.3-2.3-0.5c-0.8-0.2-1.6-0.4-2.5-0.5
			c-1-0.2-2.2-0.4-3.3-0.6c-0.9-0.1-1.9-0.3-2.8-0.4c-0.2,0-0.3-0.1-0.5-0.1C152.7,73.1,154.5,72.3,156.4,72.3L156.4,72.3z
			 M192.6,105.6c-5.5,0-10.1-3.6-11.8-8.6l-0.6-4.4c0.3-6.7,5.7-12,12.4-12c4.4,0,13.3,6.6,19.8,12.5
			C205.9,99.1,196.9,105.6,192.6,105.6L192.6,105.6z M275.8,328.3l0-29.2h26.7l3.2,5.8c0,0,0,0,0,0.1l-16,26.1
			c-0.9,1.5-2.6,2.4-4.3,2.4h-4.5C278.1,333.4,275.8,331.1,275.8,328.3z M128.5,330.2v-52.2c38-5.5,67.3-38.2,67.3-77.6
			c0-0.1,0-0.2-0.1-0.3c0-0.1,0-0.2,0-0.3l-6.3-43.4h119.9c19.2,0,34.7,15.5,34.7,34.7v137.2c0,2.8-2.3,5.1-5.1,5.1h-4.6
			c-1.8,0-3.6-1-4.4-2.6l-21.1-38.1c-0.1-0.2-0.2-0.3-0.4-0.4c-0.2-0.2-0.4-0.5-0.6-0.7c-0.2-0.2-0.4-0.3-0.7-0.4
			c-0.2-0.2-0.5-0.3-0.7-0.4c-0.3-0.1-0.6-0.1-0.9-0.2c-0.2,0-0.4-0.1-0.5-0.1H240c-2.8,0-5.1-2.3-5.1-5.1v-21
			c0-2.4-1.9-4.3-4.3-4.3c-2.4,0-4.3,1.9-4.3,4.3v63.9c0,2.8-2.3,5.1-5.1,5.1H212c-1.5,0-3-0.7-3.9-1.9l-27.2-33.2
			c-0.1-0.1-0.2-0.1-0.3-0.2c-0.1-0.1-0.1-0.2-0.2-0.3c-0.2-0.1-0.3-0.2-0.5-0.3c-0.2-0.2-0.5-0.3-0.7-0.5c-0.3-0.1-0.5-0.2-0.8-0.2
			c-0.3,0-0.5-0.1-0.8-0.1c-0.3,0-0.5,0-0.8,0.1c-0.3,0-0.5,0.1-0.8,0.2c-0.3,0.1-0.5,0.3-0.8,0.4c-0.1,0.1-0.3,0.1-0.5,0.3
			c-0.1,0.1-0.1,0.2-0.2,0.3c-0.1,0.1-0.2,0.1-0.3,0.2l-32.3,35.5c-1,1.1-2.3,1.7-3.8,1.7h-4.8C130.7,335.3,128.5,333.1,128.5,330.2
			z M117.2,270.4c-37.1,0-67.5-29.1-69.7-65.7H187C184.7,241.3,154.3,270.4,117.2,270.4L117.2,270.4z M47.9,196.1
			c0,0,15.3-107.3,14.9-108.1c0.7-0.5,2.1-1.1,4.4-1.9c5.1-1.7,12.5-3.1,21.5-4.1c17-1.8,38.9-1.8,55.9,0.1c9.1,1,16.5,2.4,21.5,4.1
			c3.1,1.1,4.3,1.9,4.7,2.3l15.6,107.5H47.9z M42.2,105.6c-4.4,0-13.3-6.6-19.9-12.5c6.6-5.9,15.5-12.5,19.9-12.5
			c5.1,0,12.8,4.8,12.2,10.4c0,0.1,0,0.1,0,0.2l-1,7.2C51.4,102.7,47.2,105.6,42.2,105.6L42.2,105.6z M42.2,105.6"/>
		<path fill="#3B2314" stroke="#3B2314" stroke-width="1.0371" stroke-miterlimit="10" d="M54.4,227.8c1.3-3.1,4.2-6.6,8.2-7.2
			c0.7-0.1,3.7-0.4,5.8,1.4c1,0.9,1.8,2.2,1.5,2.4c-0.3,0.4-1.9-1.5-4-1.4c-2.3,0.1-4.9,2.5-5.4,5.6c-0.6,3.9,2.8,10.9,14.6,4.2
			c5-2.8,7.5-4.5,10.8-6.6c4.2-2.7,8-6.7,15.1-6.8c7.6-0.1,15.2,4.5,15.2,4.5s7.6-4.6,15.2-4.5c7,0.1,10.9,4.2,15.1,6.8
			c3.3,2.1,5.8,3.8,10.8,6.6c11.8,6.6,15.2-0.3,14.6-4.2c-0.5-3.1-3.1-5.6-5.4-5.6c-2.1-0.1-3.7,1.8-4,1.4c-0.3-0.3,0.5-1.6,1.5-2.4
			c2.2-1.8,5.2-1.5,5.8-1.4c4,0.6,6.9,4.1,8.2,7.2c3,7.3-1.8,14.5-2.1,14.9c-3.7,4.7-9,6.6-14.7,7.8c-18.9,3.8-34.8-5.9-37-7.2
			c-3.3-2-7.9-5.7-7.9-5.7s-4.6,3.7-7.9,5.7c-2.2,1.3-18.1,11.1-37,7.2c-5.7-1.2-11-3-14.7-7.8C56.2,242.3,51.4,235.1,54.4,227.8z"
			/>
	</g>
</g>
</svg>
