<?xml version="1.0" encoding="utf-8"?>
<!-- Generator: Adobe Illustrator 18.1.0, SVG Export Plug-In . SVG Version: 6.00 Build 0)  -->
<svg version="1.1" id="Layer_1" xmlns="http://www.w3.org/2000/svg" xmlns:xlink="http://www.w3.org/1999/xlink" x="0px" y="0px"
	 viewBox="0 0 320 127" enable-background="new 0 0 320 127" xml:space="preserve">
<g>
	<path fill="#B11917" d="M8.2,34.7L0.4,2.3h10.1L14,23.2l4.1-20.9h8.6l3.9,20.9l3.4-20.9h9.9l-7.7,32.4H25.9l-3.7-19.4l-3.6,19.4
		H8.2z"/>
	<path fill="#B11917" d="M46.4,34.7V2.3h25.9v7.8H56.8v4.3h13.1v7.4H56.8v5h16.1v7.9H46.4z"/>
	<path fill="#B11917" d="M76.8,34.7V2.3h10.4v23.8h14.1v8.6H76.8z"/>
	<path fill="#B11917" d="M104.7,34.7V2.3H115v23.8h14.1v8.6H104.7z"/>
	<path fill="#B11917" d="M132.6,34.7V2.3h10.6v32.4H132.6z"/>
	<path fill="#B11917" d="M148.6,34.7V2.3h9.9l9.1,15.1c0.3,0.4,0.6,1,0.9,1.8c0.3,0.8,0.6,1.7,1,2.8c-0.1-0.6-0.2-1.2-0.2-1.9
		c0-0.7-0.1-1.5-0.1-2.5V2.3h9.9v32.4h-9.9l-9.1-14.9c-0.3-0.4-0.6-1.1-0.9-1.9c-0.3-0.8-0.7-1.7-1-2.8c0.1,0.6,0.2,1.2,0.2,1.8
		c0,0.6,0.1,1.5,0.1,2.6v15.2H148.6z"/>
	<path fill="#B11917" d="M208.4,34.7l-0.5-2.8c-1.2,1.2-2.6,2.2-4.2,2.8c-1.7,0.6-3.6,0.9-5.8,0.9c-4.6,0-8.3-1.5-10.9-4.6
		s-4-7.2-4-12.5c0-5.4,1.5-9.6,4.5-12.6c3-3,7.1-4.5,12.5-4.5c4.2,0,7.6,1,10.2,3.1c2.6,2.1,4.1,5,4.6,8.9h-9.9
		c-0.4-1.3-1-2.3-1.9-2.9c-0.9-0.7-2-1-3.3-1c-2.1,0-3.6,0.8-4.7,2.4s-1.5,4-1.5,7.1c0,2.9,0.5,5.1,1.6,6.6c1,1.5,2.6,2.2,4.7,2.2
		c1.5,0,2.8-0.4,3.9-1.1c1.1-0.7,1.7-1.7,2-2.9h-4.7V17h14.2v17.7H208.4z"/>
	<path fill="#B11917" d="M226.8,34.7V10.9h-9.3V2.3h29v8.5h-9.3v23.8H226.8z"/>
	<path fill="#B11917" d="M247.6,18.6c0-5.3,1.5-9.4,4.5-12.5s7.1-4.6,12.3-4.6c5.2,0,9.3,1.5,12.3,4.6s4.5,7.2,4.5,12.5
		c0,5.3-1.5,9.4-4.5,12.5c-3,3.1-7.1,4.6-12.3,4.6c-5.2,0-9.3-1.5-12.3-4.6C249.1,28,247.6,23.8,247.6,18.6z M258.1,18.6
		c0,3.1,0.5,5.3,1.5,6.7s2.6,2.2,4.8,2.2c2.2,0,3.8-0.7,4.8-2.1c1-1.4,1.5-3.7,1.5-6.8c0-3.1-0.5-5.4-1.5-6.8
		c-1-1.4-2.6-2.1-4.8-2.1c-2.2,0-3.8,0.7-4.8,2.2S258.1,15.5,258.1,18.6z"/>
	<path fill="#B11917" d="M285,34.7V2.3h9.9l9.1,15.1c0.3,0.4,0.6,1,0.9,1.8s0.6,1.7,1,2.8c-0.1-0.6-0.2-1.2-0.2-1.9
		c0-0.7-0.1-1.5-0.1-2.5V2.3h9.9v32.4h-9.9l-9.1-14.9c-0.3-0.4-0.6-1.1-0.9-1.9s-0.7-1.7-1-2.8c0.1,0.6,0.2,1.2,0.2,1.8
		c0,0.6,0.1,1.5,0.1,2.6v15.2H285z"/>
	<path fill="#422918" d="M24,67.2h9.8c-0.3,4.3-1.8,7.6-4.5,9.9c-2.7,2.4-6.4,3.5-11,3.5c-5.2,0-9.3-1.5-12.2-4.6s-4.5-7.2-4.5-12.5
		c0-5.3,1.5-9.4,4.4-12.5s7-4.6,12-4.6c4.7,0,8.4,1.1,11.1,3.4c2.7,2.3,4.2,5.5,4.5,9.7h-10c-0.1-1.7-0.7-2.9-1.6-3.7
		c-0.9-0.8-2.2-1.3-3.9-1.3c-2,0-3.6,0.7-4.6,2.2c-1,1.5-1.5,3.7-1.5,6.7c0,2.9,0.5,5.2,1.6,6.7s2.7,2.3,4.8,2.3
		c1.6,0,2.9-0.5,3.8-1.4C23.3,70.2,23.9,68.9,24,67.2z"/>
	<path fill="#422918" d="M40,79.7V47.3h10.4v11h9.7v-11h10.4v32.4H60.1V67.2h-9.7v12.5H40z"/>
	<path fill="#422918" d="M77,63.6c0-5.3,1.5-9.4,4.5-12.5c3-3,7.1-4.6,12.3-4.6c5.2,0,9.3,1.5,12.3,4.6s4.5,7.2,4.5,12.5
		c0,5.3-1.5,9.4-4.5,12.5c-3,3.1-7.1,4.6-12.3,4.6c-5.2,0-9.3-1.5-12.3-4.6C78.5,73,77,68.8,77,63.6z M87.4,63.6
		c0,3.1,0.5,5.3,1.5,6.7s2.6,2.2,4.8,2.2c2.2,0,3.8-0.7,4.8-2.1c1-1.4,1.5-3.7,1.5-6.8c0-3.1-0.5-5.4-1.5-6.8
		c-1-1.4-2.6-2.1-4.8-2.1c-2.2,0-3.8,0.7-4.8,2.2S87.4,60.5,87.4,63.6z"/>
	<path fill="#422918" d="M138.1,67.2h9.8c-0.3,4.3-1.8,7.6-4.5,9.9c-2.7,2.4-6.4,3.5-11,3.5c-5.2,0-9.3-1.5-12.2-4.6
		s-4.5-7.2-4.5-12.5c0-5.3,1.5-9.4,4.4-12.5s7-4.6,12-4.6c4.7,0,8.4,1.1,11.1,3.4c2.7,2.3,4.2,5.5,4.5,9.7h-10
		c-0.1-1.7-0.7-2.9-1.6-3.7c-0.9-0.8-2.2-1.3-3.9-1.3c-2,0-3.6,0.7-4.6,2.2c-1,1.5-1.5,3.7-1.5,6.7c0,2.9,0.5,5.2,1.6,6.7
		s2.7,2.3,4.8,2.3c1.6,0,2.9-0.5,3.8-1.4C137.4,70.2,137.9,68.9,138.1,67.2z"/>
	<path fill="#422918" d="M152.7,63.6c0-5.3,1.5-9.4,4.5-12.5c3-3,7.1-4.6,12.3-4.6c5.2,0,9.3,1.5,12.3,4.6s4.5,7.2,4.5,12.5
		c0,5.3-1.5,9.4-4.5,12.5c-3,3.1-7.1,4.6-12.3,4.6c-5.2,0-9.3-1.5-12.3-4.6C154.2,73,152.7,68.8,152.7,63.6z M163.1,63.6
		c0,3.1,0.5,5.3,1.5,6.7s2.6,2.2,4.8,2.2c2.2,0,3.8-0.7,4.8-2.1c1-1.4,1.5-3.7,1.5-6.8c0-3.1-0.5-5.4-1.5-6.8
		c-1-1.4-2.6-2.1-4.8-2.1c-2.2,0-3.8,0.7-4.8,2.2S163.1,60.5,163.1,63.6z"/>
	<path fill="#422918" d="M192.8,79.7V47.3h10.4v23.8h14.1v8.6H192.8z"/>
	<path fill="#422918" d="M220.1,79.7l11.4-32.4H242l11.4,32.4h-10.3l-1.2-4.3h-10.3l-1.3,4.3H220.1z M233.5,68.6h6.5l-3.2-11.2
		L233.5,68.6z"/>
	<path fill="#422918" d="M264.9,79.7V55.9h-9.3v-8.5h29v8.5h-9.3v23.8H264.9z"/>
	<path fill="#422918" d="M289.8,79.7V47.3h25.9v7.8h-15.5v4.3h13.1v7.4h-13.1v5h16.1v7.9H289.8z"/>
	<path fill="#B11917" d="M12.5,124.7H3.1V92.3h12.7l4.5,16.1c0.1,0.2,0.2,0.7,0.4,1.5c0.2,0.8,0.4,1.9,0.7,3.2
		c0.2-1.1,0.4-2,0.6-2.8c0.2-0.8,0.3-1.4,0.5-1.8l4.6-16.2h12.6v32.4h-9.4l0.1-15.9c0-1,0-1.9,0-2.8c0-0.9,0-1.9,0-2.8
		c-0.4,1.7-0.8,3.5-1.3,5.5l-0.1,0.3l-4,15.8h-7.3l-4-15.5c-0.2-0.7-0.4-1.5-0.6-2.4s-0.4-2.1-0.7-3.7c0,1.4,0.1,2.6,0.1,3.6
		c0,1,0,1.8,0,2.4V124.7z"/>
	<path fill="#B11917" d="M61.6,124.7V92.3h10.6v32.4H61.6z"/>
	<path fill="#B11917" d="M94.3,124.7V92.3h10.4v23.8h14.1v8.6H94.3z"/>
	<path fill="#B11917" d="M138.8,124.7V92.3h10.3v10.7l9.3-10.7h12.1l-11.6,11.9l13.1,20.4h-12.4l-7.9-13l-2.6,2.7v10.3H138.8z"/>
	<path fill="#B11917" d="M189.6,124.7V92.3h25.9v7.8H200v4.3h13.1v7.4H200v5h16.1v7.9H189.6z"/>
	<path fill="#B11917" d="M236.7,124.7V92.3h15.5c4.8,0,8.3,0.7,10.4,2.2s3.1,3.8,3.1,7.1c0,2-0.4,3.6-1.3,4.9s-2.2,2.3-3.9,3.1
		c1.8,0.4,3.1,1.1,3.9,2.3c0.8,1.1,1.3,2.8,1.3,4.9l0.2,4.5c0,0,0,0.1,0,0.1c0,1.3,0.4,2,0.9,2v1.2h-10.5c-0.2-0.8-0.3-1.5-0.4-2
		s-0.1-1-0.1-1.4v-3.2c0-1.7-0.3-2.8-1-3.5c-0.7-0.7-1.8-1-3.4-1H247v11.2H236.7z M247,106.2h4.7c1.7,0,2.8-0.2,3.4-0.7
		c0.6-0.4,0.9-1.2,0.9-2.3c0-1.1-0.3-1.9-0.9-2.4c-0.6-0.4-1.9-0.7-3.7-0.7H247V106.2z"/>
	<path fill="#B11917" d="M285.3,114.6h10.1c0.3,1.2,0.8,2,1.5,2.5s1.8,0.8,3.3,0.8c1.2,0,2.2-0.2,2.9-0.6c0.7-0.4,1-1,1-1.7
		c0-1.2-1.5-2.1-4.4-2.9c-0.6-0.1-1-0.3-1.3-0.3c-2.4-0.6-4.3-1.2-5.7-1.7c-1.4-0.5-2.4-1-3.1-1.4c-1.2-0.9-2.2-2-2.8-3.2
		c-0.6-1.2-0.9-2.7-0.9-4.3c0-3.2,1.2-5.7,3.6-7.6s5.7-2.7,10-2.7c4.2,0,7.4,0.9,9.8,2.6c2.4,1.8,3.7,4.3,4,7.5h-9.9
		c-0.2-1-0.6-1.7-1.3-2.1c-0.7-0.5-1.7-0.7-2.9-0.7c-1.1,0-1.9,0.2-2.5,0.5c-0.5,0.4-0.8,0.9-0.8,1.7c0,1.1,1.4,2,4.3,2.7
		c0.2,0.1,0.4,0.1,0.6,0.2c0.4,0.1,1,0.3,1.9,0.5c3.8,1,6.2,1.8,7.4,2.6c1.4,1,2.5,2,3.1,3.3s1,2.7,1,4.3c0,3.6-1.2,6.3-3.7,8.2
		c-2.5,1.9-6.1,2.9-10.7,2.9c-4.3,0-7.7-1-10.2-2.9C287,120.8,285.6,118.1,285.3,114.6z"/>
</g>
</svg>
