<?xml version="1.0" encoding="utf-8"?>
<!-- Generator: Adobe Illustrator 18.1.0, SVG Export Plug-In . SVG Version: 6.00 Build 0)  -->
<svg version="1.1" id="Layer_1" xmlns="http://www.w3.org/2000/svg" xmlns:xlink="http://www.w3.org/1999/xlink" x="0px" y="0px"
	 viewBox="0 255 320 59" enable-background="new 0 255 320 59" xml:space="preserve">
<g enable-background="new    ">
	<path fill="#35383A" d="M26.2,302.5v-37.8h28.6v9.5H38.4v5.9h13.1v9.1H38.4v13.3H26.2z"/>
	<path fill="#35383A" d="M60.3,271.8v-8h11.2v8H60.3z M60.3,302.5v-27.9h11.2v27.9H60.3z"/>
	<path fill="#35383A" d="M79,302.5v-27.9H89v4.1c1.3-1.6,2.7-2.8,4.3-3.6c1.6-0.8,3.4-1.2,5.4-1.2c1.7,0,3.2,0.3,4.5,0.8
		c1.3,0.6,2.5,1.4,3.4,2.5c0.8,1,1.4,2.2,1.8,3.7c0.4,1.4,0.5,3.8,0.5,7.1v14.5H98v-14.4c0-2.1-0.3-3.6-0.8-4.4
		c-0.6-0.8-1.5-1.2-2.9-1.2c-1.4,0-2.4,0.5-3.1,1.4c-0.7,0.9-1,2.3-1,4.2v14.4H79z"/>
	<path fill="#35383A" d="M145.6,302.5h-9.8v-3.4c-1.2,1.5-2.6,2.6-4.1,3.3c-1.5,0.7-3.2,1.1-5.1,1.1c-3.6,0-6.5-1.4-8.7-4.1
		c-2.2-2.7-3.3-6.3-3.3-10.8c0-4.4,1.1-8,3.3-10.8c2.2-2.8,5.1-4.1,8.6-4.1c1.7,0,3.2,0.3,4.6,1c1.4,0.6,2.6,1.6,3.7,2.9v-12.9h10.8
		V302.5z M130.3,295.3c1.4,0,2.5-0.6,3.3-1.7s1.2-2.7,1.2-4.7c0-2.2-0.4-3.8-1.1-4.9s-1.9-1.6-3.4-1.6s-2.7,0.5-3.4,1.6
		c-0.7,1.1-1.1,2.7-1.1,4.9c0,2,0.4,3.6,1.2,4.7S128.9,295.3,130.3,295.3z"/>
	<path fill="#35383A" d="M182.7,302.5h-11v-37.8h14.8l5.2,18.9c0.1,0.3,0.2,0.8,0.4,1.8c0.2,0.9,0.5,2.2,0.9,3.8
		c0.2-1.3,0.5-2.4,0.7-3.3c0.2-0.9,0.4-1.7,0.5-2.1l5.4-18.9h14.8v37.8h-11l0.1-18.6c0-1.1,0-2.2,0-3.3c0-1.1,0-2.2,0-3.3
		c-0.4,2-0.9,4.1-1.5,6.4L202,284l-4.7,18.5h-8.5l-4.7-18.1c-0.2-0.8-0.4-1.8-0.7-2.8c-0.2-1.1-0.5-2.5-0.9-4.3
		c0.1,1.6,0.1,3,0.1,4.2c0,1.2,0,2.1,0,2.8V302.5z"/>
	<path fill="#35383A" d="M222.4,271.8v-8h11.2v8H222.4z M222.4,302.5v-27.9h11.2v27.9H222.4z"/>
	<path fill="#35383A" d="M241.3,302.5v-37.8h11.2v37.8H241.3z"/>
	<path fill="#35383A" d="M259.9,302.5v-37.8H271v18.5l7.3-8.5h12.4l-10.4,10.3l11.8,17.6H279l-6.1-10l-1.9,2v8H259.9z"/>
</g>
</svg>
