<?xml version="1.0" encoding="utf-8"?>
<!-- Generator: Adobe Illustrator 18.1.0, SVG Export Plug-In . SVG Version: 6.00 Build 0)  -->
<svg version="1.1" id="Layer_1" xmlns="http://www.w3.org/2000/svg" xmlns:xlink="http://www.w3.org/1999/xlink" x="0px" y="0px"
	 viewBox="0 255 320 59" enable-background="new 0 255 320 59" xml:space="preserve">
<g enable-background="new    ">
	<path fill="#35383A" d="M16.4,304.6H3.6v-44.1h17.2l6.1,22c0.1,0.3,0.2,1,0.5,2c0.2,1.1,0.6,2.5,1,4.4c0.3-1.5,0.5-2.8,0.8-3.9
		c0.2-1.1,0.4-1.9,0.6-2.5l6.3-22.1h17.2v44.1H40.4l0.1-21.7c0-1.3,0-2.6,0-3.8c0-1.2,0-2.5,0-3.9c-0.5,2.3-1.1,4.8-1.7,7.4
		l-0.1,0.4l-5.4,21.6h-9.9L18,283.5c-0.3-1-0.5-2.1-0.8-3.3c-0.3-1.2-0.6-2.9-1-5c0.1,1.9,0.1,3.5,0.1,4.9s0,2.4,0,3.3V304.6z"/>
	<path fill="#35383A" d="M84.3,294.9h12.4c-0.9,3.6-2.9,6.2-5.9,8.1c-3,1.8-7.1,2.7-12,2.7c-5.6,0-10-1.6-13.3-4.7
		s-4.9-7.3-4.9-12.5c0-5.5,1.7-9.8,5-12.9c3.4-3.2,7.9-4.7,13.7-4.7c5.8,0,10.3,1.7,13.6,5.2c3.3,3.4,4.9,8.2,4.9,14.3v0.8l-24.3,0
		c0.1,2.1,0.6,3.7,1.6,4.8c1,1.1,2.5,1.7,4.3,1.7c1.3,0,2.3-0.2,3.1-0.7C83.4,296.5,84,295.8,84.3,294.9z M73.5,284.7H85
		c-0.1-2-0.7-3.5-1.7-4.5c-1-1-2.4-1.5-4.2-1.5c-1.7,0-3,0.5-4,1.6C74.1,281.3,73.6,282.8,73.5,284.7z"/>
	<path fill="#35383A" d="M104.4,304.6v-32.5h11.8v4.8c1.4-1.9,3.1-3.3,4.8-4.2c1.8-0.9,3.9-1.4,6.2-1.4c2.1,0,4,0.4,5.5,1.3
		c1.5,0.9,2.9,2.3,4.1,4.3c1.6-2,3.3-3.4,5.2-4.3c1.9-0.9,4-1.4,6.3-1.4c3.8,0,6.8,1,8.9,3c2.1,2,3.2,4.7,3.2,8.3v22.2h-12.7v-17.4
		c0-2-0.3-3.5-1-4.4c-0.7-0.9-1.8-1.4-3.3-1.4c-1.6,0-2.7,0.5-3.5,1.4c-0.7,1-1.1,2.5-1.1,4.5v17.3h-12.7v-17c0-2.2-0.4-3.8-1.1-4.8
		s-1.9-1.5-3.5-1.5c-1.4,0-2.5,0.5-3.3,1.5c-0.7,1-1.1,2.4-1.1,4.3v17.5H104.4z"/>
	<path fill="#35383A" d="M168.5,304.6v-44.1h12.6v15c1.3-1.4,2.7-2.5,4.3-3.2c1.6-0.7,3.2-1.1,5-1.1c4.3,0,7.7,1.6,10.3,4.7
		c2.6,3.2,3.9,7.4,3.9,12.6c0,5.2-1.3,9.4-3.8,12.6c-2.6,3.2-5.9,4.7-10.1,4.7c-2.2,0-4.2-0.4-5.9-1.3c-1.8-0.8-3.3-2.1-4.7-3.9v4
		H168.5z M181,288.7c0,2.4,0.5,4.2,1.4,5.5c0.9,1.3,2.2,2,3.9,2c1.7,0,2.9-0.7,3.9-2c0.9-1.3,1.4-3.2,1.4-5.5c0-2.6-0.4-4.5-1.3-5.7
		s-2.2-1.8-4-1.8c-1.8,0-3.2,0.6-4,1.9C181.5,284.2,181,286.1,181,288.7z"/>
	<path fill="#35383A" d="M233.3,294.9h12.4c-0.9,3.6-2.9,6.2-5.9,8.1c-3,1.8-7.1,2.7-12,2.7c-5.6,0-10-1.6-13.3-4.7
		c-3.3-3.1-4.9-7.3-4.9-12.5c0-5.5,1.7-9.8,5-12.9c3.4-3.2,7.9-4.7,13.7-4.7c5.8,0,10.3,1.7,13.6,5.2c3.3,3.4,4.9,8.2,4.9,14.3v0.8
		l-24.3,0c0.1,2.1,0.6,3.7,1.6,4.8c1,1.1,2.5,1.7,4.3,1.7c1.3,0,2.3-0.2,3.1-0.7S233,295.8,233.3,294.9z M222.5,284.7H234
		c-0.1-2-0.7-3.5-1.7-4.5c-1-1-2.4-1.5-4.2-1.5c-1.7,0-3,0.5-4,1.6C223.1,281.3,222.6,282.8,222.5,284.7z"/>
	<path fill="#35383A" d="M253.5,304.6v-32.5h11.9v5.9c0.9-2.4,2.1-4.1,3.7-5.2c1.6-1.1,3.7-1.6,6.4-1.6h1.2v12.9
		c-0.5,0-0.9-0.1-1.4-0.1c-0.4,0-0.9,0-1.3,0c-2.6,0-4.5,0.6-5.8,1.8c-1.2,1.2-1.8,3-1.8,5.5v13.3H253.5z"/>
	<path fill="#35383A" d="M281.2,294.4h12.6c0,1.4,0.4,2.4,1.1,3.1c0.7,0.7,1.8,1,3.2,1c1.4,0,2.4-0.2,3.1-0.7c0.7-0.5,1.1-1.1,1.1-2
		c0-1.5-1.6-2.5-4.8-3.2c-0.3-0.1-0.5-0.1-0.7-0.1c-6.1-1.3-10.1-2.7-11.9-4.2c-1.9-1.5-2.8-3.7-2.8-6.6c0-3.5,1.4-6.1,4.1-8
		s6.7-2.7,11.9-2.7c4.8,0,8.6,0.9,11.3,2.6c2.7,1.7,4.2,4.3,4.6,7.7h-11.6c-0.1-1-0.5-1.8-1.3-2.3s-1.7-0.9-2.8-0.9s-2,0.2-2.6,0.6
		c-0.6,0.4-0.9,1-0.9,1.7c0,1.3,1.5,2.3,4.4,2.9c0.8,0.2,1.4,0.3,1.8,0.4c5.9,1.4,9.7,2.8,11.5,4.3s2.7,3.8,2.7,6.7
		c0,3.7-1.5,6.5-4.4,8.4c-2.9,1.9-7.2,2.8-12.9,2.8c-5.3,0-9.3-0.9-12-2.8C283,301,281.4,298.2,281.2,294.4z"/>
</g>
</svg>
