<?xml version="1.0" encoding="utf-8"?>
<!-- Generator: Adobe Illustrator 18.1.0, SVG Export Plug-In . SVG Version: 6.00 Build 0)  -->
<svg version="1.1" id="Layer_1" xmlns="http://www.w3.org/2000/svg" xmlns:xlink="http://www.w3.org/1999/xlink" x="0px" y="0px"
	 viewBox="0 255 320 59" enable-background="new 0 255 320 59" xml:space="preserve">
<g enable-background="new    ">
	<path fill="#35383A" d="M4.9,284.6c0-6.2,1.8-11,5.3-14.6s8.3-5.3,14.4-5.3c6.1,0,10.8,1.8,14.3,5.3c3.5,3.6,5.3,8.4,5.3,14.6
		c0,6.1-1.8,11-5.3,14.6c-3.5,3.6-8.3,5.3-14.3,5.3c-6.1,0-10.9-1.8-14.4-5.3C6.7,295.6,4.9,290.8,4.9,284.6z M17.2,284.6
		c0,3.6,0.6,6.2,1.8,7.9c1.2,1.7,3.1,2.5,5.6,2.5c2.5,0,4.4-0.8,5.6-2.5c1.2-1.7,1.8-4.3,1.8-7.9c0-3.6-0.6-6.2-1.8-7.9
		c-1.2-1.7-3-2.5-5.6-2.5c-2.5,0-4.4,0.8-5.6,2.5C17.8,278.4,17.2,281.1,17.2,284.6z"/>
	<path fill="#35383A" d="M50.4,303.5v-27.9h10.2v5.1c0.7-2,1.8-3.5,3.2-4.4c1.4-0.9,3.2-1.4,5.5-1.4h1v11.1c-0.4,0-0.8-0.1-1.2-0.1
		c-0.4,0-0.7,0-1.1,0c-2.2,0-3.9,0.5-4.9,1.5c-1.1,1-1.6,2.6-1.6,4.7v11.4H50.4z"/>
	<path fill="#35383A" d="M105.1,303.5h-9.8v-3.4c-1.2,1.5-2.6,2.6-4.1,3.3s-3.2,1.1-5.1,1.1c-3.6,0-6.5-1.4-8.7-4.1
		c-2.2-2.7-3.3-6.3-3.3-10.8c0-4.4,1.1-8,3.3-10.8c2.2-2.8,5.1-4.1,8.6-4.1c1.7,0,3.2,0.3,4.6,1c1.4,0.6,2.6,1.6,3.7,2.9v-12.9h10.8
		V303.5z M89.8,296.3c1.4,0,2.5-0.6,3.3-1.7s1.2-2.7,1.2-4.7c0-2.2-0.4-3.8-1.1-4.9s-1.9-1.6-3.4-1.6s-2.7,0.5-3.4,1.6
		c-0.7,1.1-1.1,2.7-1.1,4.9c0,2,0.4,3.6,1.2,4.7S88.4,296.3,89.8,296.3z"/>
	<path fill="#35383A" d="M131.1,295.2h10.6c-0.8,3-2.5,5.4-5.1,6.9c-2.6,1.6-6.1,2.3-10.3,2.3c-4.8,0-8.6-1.3-11.4-4
		c-2.8-2.7-4.2-6.2-4.2-10.7c0-4.7,1.4-8.4,4.3-11.1c2.9-2.7,6.8-4.1,11.7-4.1c5,0,8.8,1.5,11.7,4.4c2.8,3,4.2,7,4.2,12.3v0.7
		l-20.8,0c0.1,1.8,0.5,3.2,1.4,4.1c0.9,1,2.1,1.5,3.7,1.5c1.1,0,2-0.2,2.7-0.6C130.4,296.6,130.9,296,131.1,295.2z M121.8,286.4h9.9
		c-0.1-1.7-0.6-3-1.4-3.9c-0.8-0.9-2-1.3-3.6-1.3c-1.5,0-2.6,0.5-3.5,1.4C122.4,283.5,121.9,284.8,121.8,286.4z"/>
	<path fill="#35383A" d="M148.4,303.5v-27.9h10.2v5.1c0.7-2,1.8-3.5,3.2-4.4s3.2-1.4,5.5-1.4h1v11.1c-0.4,0-0.8-0.1-1.2-0.1
		c-0.4,0-0.7,0-1.1,0c-2.2,0-3.9,0.5-4.9,1.5c-1.1,1-1.6,2.6-1.6,4.7v11.4H148.4z"/>
	<path fill="#35383A" d="M203.5,303.5h-11v-37.8h14.8l5.2,18.9c0.1,0.3,0.2,0.8,0.4,1.8c0.2,0.9,0.5,2.2,0.9,3.8
		c0.2-1.3,0.5-2.4,0.7-3.3c0.2-0.9,0.4-1.7,0.5-2.1l5.4-18.9h14.8v37.8h-11l0.1-18.6c0-1.1,0-2.2,0-3.3c0-1.1,0-2.2,0-3.3
		c-0.4,2-0.9,4.1-1.5,6.4l-0.1,0.3l-4.7,18.5h-8.5l-4.7-18.1c-0.2-0.8-0.4-1.8-0.7-2.8c-0.2-1.1-0.5-2.5-0.9-4.3
		c0.1,1.6,0.1,3,0.1,4.2c0,1.2,0,2.1,0,2.8V303.5z"/>
	<path fill="#35383A" d="M243.2,272.8v-8h11.2v8H243.2z M243.2,303.5v-27.9h11.2v27.9H243.2z"/>
	<path fill="#35383A" d="M262.1,303.5v-37.8h11.2v37.8H262.1z"/>
	<path fill="#35383A" d="M280.7,303.5v-37.8h11.1v18.5l7.3-8.5h12.4l-10.4,10.3l11.8,17.6h-13.2l-6.1-10l-1.9,2v8H280.7z"/>
</g>
</svg>
