<?xml version="1.0" encoding="utf-8"?>
<!-- Generator: Adobe Illustrator 18.1.0, SVG Export Plug-In . SVG Version: 6.00 Build 0)  -->
<svg version="1.1" id="Layer_1" xmlns="http://www.w3.org/2000/svg" xmlns:xlink="http://www.w3.org/1999/xlink" x="0px" y="0px"
	 viewBox="0 255 320 59" enable-background="new 0 255 320 59" xml:space="preserve">
<g enable-background="new    ">
	<path fill="#FFFFFF" d="M14.2,305.8L3.5,261.6h13.8l4.8,28.6l5.6-28.6h11.8l5.3,28.6l4.7-28.6H63l-10.5,44.2H38.4l-5-26.5
		l-4.9,26.5H14.2z"/>
	<path fill="#FFFFFF" d="M88.4,296.2h12.4c-0.9,3.6-2.9,6.3-5.9,8.1c-3.1,1.8-7.1,2.7-12.1,2.7c-5.6,0-10.1-1.6-13.3-4.7
		c-3.3-3.1-4.9-7.3-4.9-12.6c0-5.5,1.7-9.8,5-13c3.4-3.2,7.9-4.8,13.7-4.8c5.8,0,10.4,1.7,13.6,5.2c3.3,3.5,4.9,8.2,4.9,14.4v0.8
		l-24.3,0c0.1,2.1,0.6,3.7,1.7,4.8c1,1.1,2.5,1.7,4.4,1.7c1.3,0,2.3-0.2,3.2-0.7C87.5,297.7,88.1,297,88.4,296.2z M77.5,285.8H89
		c-0.1-2-0.7-3.5-1.7-4.5c-1-1-2.4-1.5-4.2-1.5c-1.7,0-3,0.5-4,1.6S77.6,283.9,77.5,285.8z"/>
	<path fill="#FFFFFF" d="M108.8,305.8v-44.2h13.1v44.2H108.8z"/>
	<path fill="#FFFFFF" d="M152.4,293.1h13c-0.3,4.3-2,7.7-5.1,10.2c-3.2,2.5-7.3,3.7-12.6,3.7c-5.8,0-10.4-1.6-13.7-4.7
		c-3.4-3.1-5-7.4-5-12.8c0-5.4,1.7-9.7,5-12.8c3.3-3.1,7.9-4.7,13.7-4.7c5.2,0,9.5,1.2,12.7,3.7c3.2,2.5,4.9,5.7,5,9.9h-13
		c-0.1-1.5-0.6-2.7-1.4-3.4c-0.8-0.7-1.9-1.1-3.4-1.1c-1.9,0-3.3,0.7-4.1,2c-0.9,1.4-1.3,3.5-1.3,6.4c0,2.9,0.4,5.1,1.3,6.5
		c0.9,1.4,2.2,2,4.1,2c1.5,0,2.7-0.4,3.5-1.2C151.8,295.9,152.3,294.7,152.4,293.1z"/>
	<path fill="#FFFFFF" d="M170.4,289.5c0-5.4,1.6-9.7,4.9-12.8c3.3-3.1,7.8-4.7,13.5-4.7c5.7,0,10.3,1.6,13.5,4.7
		c3.3,3.1,4.9,7.4,4.9,12.8c0,5.4-1.6,9.7-4.9,12.8s-7.8,4.7-13.5,4.7c-5.7,0-10.2-1.6-13.5-4.7C172,299.2,170.4,294.9,170.4,289.5z
		 M183.5,289.5c0,3,0.4,5.2,1.2,6.5c0.8,1.3,2.2,2,4.1,2c1.9,0,3.3-0.7,4.1-2s1.3-3.5,1.3-6.5c0-3-0.4-5.1-1.3-6.4
		c-0.9-1.3-2.2-2-4.1-2c-1.9,0-3.3,0.7-4.1,2C183.9,284.3,183.5,286.5,183.5,289.5z"/>
	<path fill="#FFFFFF" d="M213.9,305.8v-32.6h11.8v4.8c1.4-1.9,3.1-3.3,4.9-4.3c1.8-0.9,3.9-1.4,6.2-1.4c2.1,0,4,0.5,5.5,1.4
		c1.6,0.9,2.9,2.3,4.2,4.3c1.6-2,3.3-3.4,5.2-4.3c1.9-0.9,4-1.4,6.4-1.4c3.8,0,6.8,1,8.9,3c2.1,2,3.2,4.8,3.2,8.3v22.2h-12.8v-17.5
		c0-2-0.3-3.5-1-4.4c-0.7-0.9-1.8-1.4-3.3-1.4c-1.6,0-2.7,0.5-3.5,1.4c-0.7,1-1.1,2.5-1.1,4.5v17.4h-12.7v-17c0-2.2-0.4-3.8-1.1-4.8
		c-0.7-1-1.9-1.5-3.5-1.5c-1.4,0-2.5,0.5-3.3,1.5c-0.8,1-1.1,2.4-1.1,4.3v17.5H213.9z"/>
	<path fill="#FFFFFF" d="M300.4,296.2h12.4c-0.9,3.6-2.9,6.3-5.9,8.1c-3.1,1.8-7.1,2.7-12.1,2.7c-5.6,0-10.1-1.6-13.3-4.7
		c-3.3-3.1-4.9-7.3-4.9-12.6c0-5.5,1.7-9.8,5-13c3.4-3.2,7.9-4.8,13.7-4.8c5.8,0,10.4,1.7,13.6,5.2c3.3,3.5,4.9,8.2,4.9,14.4v0.8
		l-24.3,0c0.1,2.1,0.6,3.7,1.7,4.8c1,1.1,2.5,1.7,4.4,1.7c1.3,0,2.3-0.2,3.2-0.7C299.5,297.7,300.1,297,300.4,296.2z M289.5,285.8
		H301c-0.1-2-0.7-3.5-1.7-4.5c-1-1-2.4-1.5-4.2-1.5c-1.7,0-3,0.5-4,1.6C290.1,282.4,289.6,283.9,289.5,285.8z"/>
</g>
</svg>
